<svg width="21" height="21" viewBox="0 0 21 21" fill="none" xmlns="http://www.w3.org/2000/svg">
<path d="M13.3618 3.88452H7.63637C5.56713 3.88452 3.88369 5.56797 3.88369 7.63716V13.3627C3.88369 15.4319 5.56713 17.1153 7.63637 17.1153H13.3618C15.4311 17.1153 17.1145 15.4319 17.1145 13.3627V7.6372C17.1145 5.56797 15.4311 3.88452 13.3618 3.88452ZM10.4991 14.331C8.30883 14.331 6.52686 12.5491 6.52686 10.3588C6.52686 8.16844 8.30878 6.38656 10.4991 6.38656C12.6894 6.38656 14.4713 8.16848 14.4713 10.3588C14.4713 12.549 12.6894 14.331 10.4991 14.331ZM15.3601 6.46047C15.3601 6.80024 15.0847 7.0757 14.7449 7.0757C14.4051 7.0757 14.1297 6.80024 14.1297 6.46047V6.44911C14.1297 6.10933 14.4051 5.83387 14.7449 5.83387C15.0847 5.83387 15.3601 6.10933 15.3601 6.44911V6.46047Z" fill="#3E3E3E"/>
<path d="M10.5006 13.1007C12.0149 13.1007 13.2424 11.8732 13.2424 10.359C13.2424 8.84472 12.0149 7.61719 10.5006 7.61719C8.98639 7.61719 7.75886 8.84472 7.75886 10.359C7.75886 11.8732 8.98639 13.1007 10.5006 13.1007Z" fill="#3E3E3E"/>
<path d="M20.3848 0H0.615234C0.275461 0 0 0.275461 0 0.615234V20.3848C0 20.7245 0.275461 21 0.615234 21H20.3848C20.7245 21 21 20.7245 21 20.3848V0.615234C21 0.275461 20.7245 0 20.3848 0ZM18.3459 13.3627C18.3459 16.1104 16.1104 18.3458 13.3627 18.3458H7.63727C4.88955 18.3458 2.65412 16.1104 2.65412 13.3627V7.63727C2.65412 4.88955 4.88955 2.65416 7.63727 2.65416H13.3627C16.1104 2.65416 18.3459 4.88955 18.3459 7.63727V13.3627Z" fill="#3E3E3E"/>
</svg>
